{
	"patcher" : 	{
		"fileversion" : 1,
		"appversion" : 		{
			"major" : 8,
			"minor" : 0,
			"revision" : 1,
			"architecture" : "x64",
			"modernui" : 1
		}
,
		"classnamespace" : "box",
		"rect" : [ 293.0, 123.0, 950.0, 574.0 ],
		"bglocked" : 0,
		"openinpresentation" : 1,
		"default_fontsize" : 12.0,
		"default_fontface" : 0,
		"default_fontname" : "Arial",
		"gridonopen" : 1,
		"gridsize" : [ 15.0, 15.0 ],
		"gridsnaponopen" : 1,
		"objectsnaponopen" : 1,
		"statusbarvisible" : 2,
		"toolbarvisible" : 1,
		"lefttoolbarpinned" : 0,
		"toptoolbarpinned" : 0,
		"righttoolbarpinned" : 0,
		"bottomtoolbarpinned" : 0,
		"toolbars_unpinned_last_save" : 0,
		"tallnewobj" : 0,
		"boxanimatetime" : 200,
		"enablehscroll" : 1,
		"enablevscroll" : 1,
		"devicewidth" : 0.0,
		"description" : "",
		"digest" : "",
		"tags" : "",
		"style" : "",
		"subpatcher_template" : "",
		"boxes" : [ 			{
				"box" : 				{
					"bgcolor" : [ 0.960784, 0.827451, 0.156863, 0.0 ],
					"bubble" : 1,
					"bubbleside" : 2,
					"id" : "obj-8",
					"linecount" : 2,
					"maxclass" : "comment",
					"numinlets" : 1,
					"numoutlets" : 0,
					"patching_rect" : [ 335.25, 626.0, 98.0, 52.0 ],
					"text" : "Space bar = +1\nDel = -1",
					"textjustification" : 1
				}

			}
, 			{
				"box" : 				{
					"id" : "obj-14",
					"maxclass" : "message",
					"numinlets" : 2,
					"numoutlets" : 1,
					"outlettype" : [ "" ],
					"patching_rect" : [ 381.5, 759.5, 22.0, 22.0 ],
					"text" : "-1"
				}

			}
, 			{
				"box" : 				{
					"id" : "obj-21",
					"maxclass" : "newobj",
					"numinlets" : 3,
					"numoutlets" : 3,
					"outlettype" : [ "bang", "bang", "" ],
					"patching_rect" : [ 359.0, 720.0, 64.0, 22.0 ],
					"text" : "sel 32 127"
				}

			}
, 			{
				"box" : 				{
					"id" : "obj-37",
					"maxclass" : "newobj",
					"numinlets" : 1,
					"numoutlets" : 1,
					"outlettype" : [ "" ],
					"patching_rect" : [ 437.5, 720.0, 70.0, 22.0 ],
					"text" : "loadmess 1"
				}

			}
, 			{
				"box" : 				{
					"id" : "obj-39",
					"maxclass" : "number",
					"minimum" : 1,
					"numinlets" : 1,
					"numoutlets" : 2,
					"outlettype" : [ "", "bang" ],
					"parameter_enable" : 0,
					"patching_rect" : [ 437.5, 759.5, 50.0, 22.0 ]
				}

			}
, 			{
				"box" : 				{
					"id" : "obj-40",
					"maxclass" : "newobj",
					"numinlets" : 2,
					"numoutlets" : 1,
					"outlettype" : [ "int" ],
					"patching_rect" : [ 361.5, 807.5, 29.5, 22.0 ],
					"text" : "+"
				}

			}
, 			{
				"box" : 				{
					"id" : "obj-41",
					"maxclass" : "message",
					"numinlets" : 2,
					"numoutlets" : 1,
					"outlettype" : [ "" ],
					"patching_rect" : [ 361.5, 759.5, 18.0, 22.0 ],
					"text" : "1"
				}

			}
, 			{
				"box" : 				{
					"id" : "obj-42",
					"maxclass" : "newobj",
					"numinlets" : 0,
					"numoutlets" : 4,
					"outlettype" : [ "int", "int", "int", "int" ],
					"patching_rect" : [ 359.0, 681.5, 50.5, 22.0 ],
					"text" : "key"
				}

			}
, 			{
				"box" : 				{
					"bgmode" : 0,
					"border" : 0,
					"clickthrough" : 0,
					"enablehscroll" : 0,
					"enablevscroll" : 0,
					"id" : "obj-35",
					"lockeddragscroll" : 0,
					"maxclass" : "bpatcher",
					"name" : "noiseGate.maxpat",
					"numinlets" : 1,
					"numoutlets" : 1,
					"offset" : [ 0.0, 0.0 ],
					"outlettype" : [ "signal" ],
					"patching_rect" : [ 331.5, 118.5, 130.0, 84.5 ],
					"presentation" : 1,
					"presentation_rect" : [ 279.0, 318.0, 130.0, 84.5 ],
					"varname" : "noiseGate",
					"viewvisibility" : 1
				}

			}
, 			{
				"box" : 				{
					"args" : [ "dryWet" ],
					"bgmode" : 0,
					"border" : 0,
					"clickthrough" : 0,
					"enablehscroll" : 0,
					"enablevscroll" : 0,
					"id" : "obj-34",
					"lockeddragscroll" : 0,
					"maxclass" : "bpatcher",
					"name" : "dryWet.maxpat",
					"numinlets" : 2,
					"numoutlets" : 1,
					"offset" : [ 0.0, 0.0 ],
					"outlettype" : [ "signal" ],
					"patching_rect" : [ 331.5, 45.0, 72.0, 53.0 ],
					"presentation" : 1,
					"presentation_rect" : [ 234.0, 410.0, 72.0, 53.0 ],
					"varname" : "dryWet",
					"viewvisibility" : 1
				}

			}
, 			{
				"box" : 				{
					"bgmode" : 0,
					"border" : 0,
					"clickthrough" : 0,
					"enablehscroll" : 0,
					"enablevscroll" : 0,
					"id" : "obj-32",
					"lockeddragscroll" : 0,
					"maxclass" : "bpatcher",
					"name" : "panpot.maxpat",
					"numinlets" : 1,
					"numoutlets" : 2,
					"offset" : [ 0.0, 0.0 ],
					"outlettype" : [ "signal", "signal" ],
					"patching_rect" : [ 498.5, 221.0, 78.0, 53.0 ],
					"presentation" : 1,
					"presentation_rect" : [ 380.0, 410.0, 74.0, 53.0 ],
					"varname" : "panpot",
					"viewvisibility" : 1
				}

			}
, 			{
				"box" : 				{
					"id" : "obj-33",
					"maxclass" : "newobj",
					"numinlets" : 2,
					"numoutlets" : 2,
					"outlettype" : [ "", "" ],
					"patching_rect" : [ 398.0, 942.5, 62.0, 22.0 ],
					"text" : "route float"
				}

			}
, 			{
				"box" : 				{
					"bgmode" : 0,
					"border" : 0,
					"clickthrough" : 0,
					"enablehscroll" : 0,
					"enablevscroll" : 0,
					"id" : "obj-12",
					"lockeddragscroll" : 0,
					"maxclass" : "bpatcher",
					"name" : "tube6V6.maxpat",
					"numinlets" : 1,
					"numoutlets" : 1,
					"offset" : [ 0.0, 0.0 ],
					"outlettype" : [ "signal" ],
					"patching_rect" : [ 16.0, 446.5, 113.0, 78.0 ],
					"presentation" : 1,
					"presentation_rect" : [ 341.0, 7.0, 113.0, 78.0 ],
					"varname" : "tube6V6",
					"viewvisibility" : 1
				}

			}
, 			{
				"box" : 				{
					"id" : "obj-7",
					"maxclass" : "comment",
					"numinlets" : 1,
					"numoutlets" : 0,
					"patching_rect" : [ 669.0, 570.5, 94.0, 20.0 ],
					"text" : "preset name !!"
				}

			}
, 			{
				"box" : 				{
					"id" : "obj-23",
					"maxclass" : "message",
					"numinlets" : 2,
					"numoutlets" : 1,
					"outlettype" : [ "" ],
					"patching_rect" : [ 622.0, 570.5, 34.0, 22.0 ],
					"text" : "bass"
				}

			}
, 			{
				"box" : 				{
					"id" : "obj-25",
					"maxclass" : "newobj",
					"numinlets" : 1,
					"numoutlets" : 2,
					"outlettype" : [ "bang", "bang" ],
					"patching_rect" : [ 486.0, 509.5, 155.0, 22.0 ],
					"text" : "t b b"
				}

			}
, 			{
				"box" : 				{
					"id" : "obj-26",
					"maxclass" : "newobj",
					"numinlets" : 1,
					"numoutlets" : 1,
					"outlettype" : [ "bang" ],
					"patching_rect" : [ 486.0, 474.5, 93.0, 22.0 ],
					"text" : "loadbang"
				}

			}
, 			{
				"box" : 				{
					"fontname" : "Arial",
					"fontsize" : 12.0,
					"id" : "obj-27",
					"maxclass" : "newobj",
					"numinlets" : 2,
					"numoutlets" : 1,
					"outlettype" : [ "" ],
					"patching_rect" : [ 536.0, 622.5, 105.0, 22.0 ],
					"text" : "sprintf %s%s.json"
				}

			}
, 			{
				"box" : 				{
					"fontname" : "Arial",
					"fontsize" : 12.0,
					"id" : "obj-28",
					"maxclass" : "message",
					"numinlets" : 2,
					"numoutlets" : 1,
					"outlettype" : [ "" ],
					"patching_rect" : [ 486.0, 547.5, 34.0, 22.0 ],
					"text" : "path"
				}

			}
, 			{
				"box" : 				{
					"fontname" : "Arial",
					"fontsize" : 12.0,
					"id" : "obj-29",
					"maxclass" : "newobj",
					"numinlets" : 1,
					"numoutlets" : 2,
					"outlettype" : [ "", "" ],
					"patching_rect" : [ 486.0, 581.5, 69.0, 22.0 ],
					"save" : [ "#N", "thispatcher", ";", "#Q", "end", ";" ],
					"text" : "thispatcher"
				}

			}
, 			{
				"box" : 				{
					"id" : "obj-36",
					"maxclass" : "newobj",
					"numinlets" : 1,
					"numoutlets" : 4,
					"outlettype" : [ "", "", "", "" ],
					"patching_rect" : [ 444.5, 57.0, 70.0, 22.0 ],
					"text" : "autopattr",
					"varname" : "u964001575"
				}

			}
, 			{
				"box" : 				{
					"fontname" : "Arial",
					"fontsize" : 13.0,
					"id" : "obj-9",
					"maxclass" : "message",
					"numinlets" : 2,
					"numoutlets" : 1,
					"outlettype" : [ "" ],
					"patching_rect" : [ 678.0, 894.5, 97.0, 23.0 ],
					"text" : "storagewindow"
				}

			}
, 			{
				"box" : 				{
					"fontname" : "Arial",
					"fontsize" : 13.0,
					"id" : "obj-38",
					"maxclass" : "message",
					"numinlets" : 2,
					"numoutlets" : 1,
					"outlettype" : [ "" ],
					"patching_rect" : [ 653.0, 852.5, 84.0, 23.0 ],
					"text" : "clientwindow"
				}

			}
, 			{
				"box" : 				{
					"id" : "obj-10",
					"maxclass" : "newobj",
					"numinlets" : 1,
					"numoutlets" : 2,
					"outlettype" : [ "bang", "" ],
					"patching_rect" : [ 536.0, 678.5, 143.0, 22.0 ],
					"text" : "t b l"
				}

			}
, 			{
				"box" : 				{
					"autorestore" : "bass.json",
					"id" : "obj-13",
					"maxclass" : "newobj",
					"numinlets" : 1,
					"numoutlets" : 1,
					"outlettype" : [ "" ],
					"patching_rect" : [ 478.0, 942.5, 100.0, 22.0 ],
					"saved_object_attributes" : 					{
						"client_rect" : [ 51, 45, 405, 173 ],
						"parameter_enable" : 0,
						"parameter_mappable" : 0,
						"storage_rect" : [ 583, 69, 1034, 197 ]
					}
,
					"text" : "pattrstorage",
					"varname" : "u177001445"
				}

			}
, 			{
				"box" : 				{
					"fontname" : "Arial",
					"fontsize" : 12.0,
					"id" : "obj-18",
					"linecount" : 4,
					"maxclass" : "message",
					"numinlets" : 2,
					"numoutlets" : 1,
					"outlettype" : [ "" ],
					"patching_rect" : [ 536.0, 712.5, 143.0, 62.0 ],
					"text" : "MacintoshHD:/Users/cs38620h/ownCloud/macShare/panoplie/examples/bass.json"
				}

			}
, 			{
				"box" : 				{
					"bgmode" : 0,
					"border" : 0,
					"clickthrough" : 0,
					"enablehscroll" : 0,
					"enablevscroll" : 0,
					"id" : "obj-20",
					"lockeddragscroll" : 0,
					"maxclass" : "bpatcher",
					"name" : "presetManager.maxpat",
					"numinlets" : 3,
					"numoutlets" : 1,
					"offset" : [ 0.0, 0.0 ],
					"outlettype" : [ "" ],
					"patching_rect" : [ 478.0, 794.5, 135.0, 133.0 ],
					"presentation" : 1,
					"presentation_rect" : [ 5.0, 333.0, 129.0, 130.0 ],
					"viewvisibility" : 1
				}

			}
, 			{
				"box" : 				{
					"bgmode" : 0,
					"border" : 0,
					"clickthrough" : 0,
					"enablehscroll" : 0,
					"enablevscroll" : 0,
					"id" : "obj-4",
					"lockeddragscroll" : 0,
					"maxclass" : "bpatcher",
					"name" : "compressor.maxpat",
					"numinlets" : 1,
					"numoutlets" : 1,
					"offset" : [ 0.0, 0.0 ],
					"outlettype" : [ "signal" ],
					"patching_rect" : [ 498.5, 118.5, 220.0, 82.0 ],
					"presentation" : 1,
					"presentation_rect" : [ 234.0, 234.0, 220.0, 82.0 ],
					"varname" : "compressor",
					"viewvisibility" : 1
				}

			}
, 			{
				"box" : 				{
					"bgmode" : 0,
					"border" : 0,
					"clickthrough" : 0,
					"enablehscroll" : 0,
					"enablevscroll" : 0,
					"id" : "obj-24",
					"lockeddragscroll" : 0,
					"maxclass" : "bpatcher",
					"name" : "autowah.maxpat",
					"numinlets" : 1,
					"numoutlets" : 1,
					"offset" : [ 0.0, 0.0 ],
					"outlettype" : [ "signal" ],
					"patching_rect" : [ 16.0, 244.0, 143.0, 54.0 ],
					"presentation" : 1,
					"presentation_rect" : [ 5.0, 189.0, 138.0, 55.0 ],
					"varname" : "autowah",
					"viewvisibility" : 1
				}

			}
, 			{
				"box" : 				{
					"bgmode" : 0,
					"border" : 0,
					"clickthrough" : 0,
					"enablehscroll" : 0,
					"enablevscroll" : 0,
					"id" : "obj-22",
					"lockeddragscroll" : 0,
					"maxclass" : "bpatcher",
					"name" : "toneStackAmpeg.maxpat",
					"numinlets" : 1,
					"numoutlets" : 1,
					"offset" : [ 0.0, 0.0 ],
					"outlettype" : [ "signal" ],
					"patching_rect" : [ 255.0, 435.0, 145.0, 76.0 ],
					"presentation" : 1,
					"presentation_rect" : [ 309.0, 82.0, 145.0, 76.0 ],
					"varname" : "toneStackAmpeg",
					"viewvisibility" : 1
				}

			}
, 			{
				"box" : 				{
					"bgmode" : 0,
					"border" : 0,
					"clickthrough" : 0,
					"enablehscroll" : 0,
					"enablevscroll" : 0,
					"id" : "obj-17",
					"lockeddragscroll" : 0,
					"maxclass" : "bpatcher",
					"name" : "distoTubeScreamer.maxpat",
					"numinlets" : 1,
					"numoutlets" : 1,
					"offset" : [ 0.0, 0.0 ],
					"outlettype" : [ "signal" ],
					"patching_rect" : [ 16.0, 331.5, 209.0, 85.0 ],
					"presentation" : 1,
					"presentation_rect" : [ 5.0, 246.0, 157.0, 85.0 ],
					"varname" : "distoTubeScreamer",
					"viewvisibility" : 1
				}

			}
, 			{
				"box" : 				{
					"bgmode" : 0,
					"border" : 0,
					"clickthrough" : 0,
					"enablehscroll" : 0,
					"enablevscroll" : 0,
					"id" : "obj-16",
					"lockeddragscroll" : 0,
					"maxclass" : "bpatcher",
					"name" : "cabinetAmpegManatee.maxpat",
					"numinlets" : 1,
					"numoutlets" : 1,
					"offset" : [ 0.0, 0.0 ],
					"outlettype" : [ "signal" ],
					"patching_rect" : [ 255.0, 337.0, 172.0, 74.0 ],
					"presentation" : 1,
					"presentation_rect" : [ 282.0, 158.0, 172.0, 74.0 ],
					"varname" : "cabinetAmpegManatee",
					"viewvisibility" : 1
				}

			}
, 			{
				"box" : 				{
					"id" : "obj-6",
					"maxclass" : "newobj",
					"numinlets" : 1,
					"numoutlets" : 0,
					"patching_rect" : [ 255.0, 525.0, 130.0, 22.0 ],
					"text" : "send~ toAudioOut"
				}

			}
, 			{
				"box" : 				{
					"id" : "obj-5",
					"maxclass" : "newobj",
					"numinlets" : 1,
					"numoutlets" : 1,
					"outlettype" : [ "signal" ],
					"patching_rect" : [ 384.5, 8.0, 130.0, 22.0 ],
					"text" : "receive~ toAudioOut"
				}

			}
, 			{
				"box" : 				{
					"id" : "obj-3",
					"maxclass" : "ezdac~",
					"numinlets" : 2,
					"numoutlets" : 0,
					"patching_rect" : [ 531.5, 291.0, 45.0, 45.0 ],
					"presentation" : 1,
					"presentation_rect" : [ 321.5, 414.0, 45.0, 45.0 ]
				}

			}
, 			{
				"box" : 				{
					"bgmode" : 0,
					"border" : 0,
					"clickthrough" : 0,
					"enablehscroll" : 0,
					"enablevscroll" : 0,
					"id" : "obj-1",
					"lockeddragscroll" : 0,
					"maxclass" : "bpatcher",
					"name" : "stkBass2.maxpat",
					"numinlets" : 1,
					"numoutlets" : 1,
					"offset" : [ 0.0, 0.0 ],
					"outlettype" : [ "signal" ],
					"patching_rect" : [ 16.0, 8.0, 271.0, 195.0 ],
					"presentation" : 1,
					"presentation_rect" : [ 5.0, 7.0, 271.0, 180.0 ],
					"varname" : "stkBass2",
					"viewvisibility" : 1
				}

			}
 ],
		"lines" : [ 			{
				"patchline" : 				{
					"destination" : [ "obj-24", 0 ],
					"order" : 1,
					"source" : [ "obj-1", 0 ]
				}

			}
, 			{
				"patchline" : 				{
					"destination" : [ "obj-34", 0 ],
					"order" : 0,
					"source" : [ "obj-1", 0 ]
				}

			}
, 			{
				"patchline" : 				{
					"destination" : [ "obj-18", 1 ],
					"source" : [ "obj-10", 1 ]
				}

			}
, 			{
				"patchline" : 				{
					"destination" : [ "obj-18", 0 ],
					"source" : [ "obj-10", 0 ]
				}

			}
, 			{
				"patchline" : 				{
					"destination" : [ "obj-16", 0 ],
					"source" : [ "obj-12", 0 ]
				}

			}
, 			{
				"patchline" : 				{
					"destination" : [ "obj-20", 2 ],
					"source" : [ "obj-13", 0 ]
				}

			}
, 			{
				"patchline" : 				{
					"destination" : [ "obj-40", 0 ],
					"source" : [ "obj-14", 0 ]
				}

			}
, 			{
				"patchline" : 				{
					"destination" : [ "obj-22", 0 ],
					"source" : [ "obj-16", 0 ]
				}

			}
, 			{
				"patchline" : 				{
					"destination" : [ "obj-12", 0 ],
					"source" : [ "obj-17", 0 ]
				}

			}
, 			{
				"patchline" : 				{
					"destination" : [ "obj-20", 1 ],
					"source" : [ "obj-18", 0 ]
				}

			}
, 			{
				"patchline" : 				{
					"destination" : [ "obj-13", 0 ],
					"order" : 0,
					"source" : [ "obj-20", 0 ]
				}

			}
, 			{
				"patchline" : 				{
					"destination" : [ "obj-33", 0 ],
					"order" : 1,
					"source" : [ "obj-20", 0 ]
				}

			}
, 			{
				"patchline" : 				{
					"destination" : [ "obj-14", 0 ],
					"source" : [ "obj-21", 1 ]
				}

			}
, 			{
				"patchline" : 				{
					"destination" : [ "obj-41", 0 ],
					"source" : [ "obj-21", 0 ]
				}

			}
, 			{
				"patchline" : 				{
					"destination" : [ "obj-6", 0 ],
					"source" : [ "obj-22", 0 ]
				}

			}
, 			{
				"patchline" : 				{
					"destination" : [ "obj-27", 1 ],
					"source" : [ "obj-23", 0 ]
				}

			}
, 			{
				"patchline" : 				{
					"destination" : [ "obj-17", 0 ],
					"source" : [ "obj-24", 0 ]
				}

			}
, 			{
				"patchline" : 				{
					"destination" : [ "obj-23", 0 ],
					"source" : [ "obj-25", 1 ]
				}

			}
, 			{
				"patchline" : 				{
					"destination" : [ "obj-28", 0 ],
					"source" : [ "obj-25", 0 ]
				}

			}
, 			{
				"patchline" : 				{
					"destination" : [ "obj-25", 0 ],
					"source" : [ "obj-26", 0 ]
				}

			}
, 			{
				"patchline" : 				{
					"destination" : [ "obj-10", 0 ],
					"source" : [ "obj-27", 0 ]
				}

			}
, 			{
				"patchline" : 				{
					"destination" : [ "obj-29", 0 ],
					"source" : [ "obj-28", 0 ]
				}

			}
, 			{
				"patchline" : 				{
					"destination" : [ "obj-27", 0 ],
					"source" : [ "obj-29", 1 ]
				}

			}
, 			{
				"patchline" : 				{
					"destination" : [ "obj-3", 1 ],
					"source" : [ "obj-32", 1 ]
				}

			}
, 			{
				"patchline" : 				{
					"destination" : [ "obj-3", 0 ],
					"source" : [ "obj-32", 0 ]
				}

			}
, 			{
				"patchline" : 				{
					"destination" : [ "obj-39", 0 ],
					"source" : [ "obj-33", 0 ]
				}

			}
, 			{
				"patchline" : 				{
					"destination" : [ "obj-35", 0 ],
					"source" : [ "obj-34", 0 ]
				}

			}
, 			{
				"patchline" : 				{
					"destination" : [ "obj-4", 0 ],
					"source" : [ "obj-35", 0 ]
				}

			}
, 			{
				"patchline" : 				{
					"destination" : [ "obj-39", 0 ],
					"source" : [ "obj-37", 0 ]
				}

			}
, 			{
				"patchline" : 				{
					"destination" : [ "obj-13", 0 ],
					"source" : [ "obj-38", 0 ]
				}

			}
, 			{
				"patchline" : 				{
					"destination" : [ "obj-40", 1 ],
					"source" : [ "obj-39", 0 ]
				}

			}
, 			{
				"patchline" : 				{
					"destination" : [ "obj-32", 0 ],
					"source" : [ "obj-4", 0 ]
				}

			}
, 			{
				"patchline" : 				{
					"destination" : [ "obj-20", 0 ],
					"order" : 1,
					"source" : [ "obj-40", 0 ]
				}

			}
, 			{
				"patchline" : 				{
					"destination" : [ "obj-39", 0 ],
					"order" : 0,
					"source" : [ "obj-40", 0 ]
				}

			}
, 			{
				"patchline" : 				{
					"destination" : [ "obj-40", 0 ],
					"source" : [ "obj-41", 0 ]
				}

			}
, 			{
				"patchline" : 				{
					"destination" : [ "obj-21", 0 ],
					"source" : [ "obj-42", 0 ]
				}

			}
, 			{
				"patchline" : 				{
					"destination" : [ "obj-34", 1 ],
					"source" : [ "obj-5", 0 ]
				}

			}
, 			{
				"patchline" : 				{
					"destination" : [ "obj-13", 0 ],
					"source" : [ "obj-9", 0 ]
				}

			}
 ],
		"parameters" : 		{
			"obj-4::obj-15" : [ "gain[1]", "gain", 0 ],
			"obj-1::obj-26" : [ "touchLength", "touchLen", 0 ],
			"obj-22::obj-13" : [ "middle", "middle", 0 ],
			"obj-16::obj-4" : [ "amountBass", "bass", 0 ],
			"obj-4::obj-4" : [ "ratio", "ratio", 0 ],
			"obj-1::obj-8" : [ "live.gain~", "Gain", 0 ],
			"obj-17::obj-4" : [ "tone", "tone", 0 ],
			"obj-4::obj-12" : [ "threshold", "thres", 0 ],
			"obj-12::obj-4" : [ "preGain", "preGain", 0 ],
			"obj-1::obj-23" : [ "modType", "modType", 0 ],
			"obj-32::obj-24" : [ "panpot", "panpot", 0 ],
			"obj-35::obj-41" : [ "release[3]", "release", 0 ],
			"obj-22::obj-4" : [ "bass", "bass", 0 ],
			"obj-35::obj-38" : [ "threshold[1]", "thresh", 0 ],
			"obj-16::obj-24" : [ "amountTreble", "treble", 0 ],
			"obj-4::obj-9" : [ "release", "release", 0 ],
			"obj-12::obj-13" : [ "gain", "gain", 0 ],
			"obj-1::obj-24" : [ "nonLin", "nonLin", 0 ],
			"obj-24::obj-24" : [ "amount", "amount", 0 ],
			"obj-34::obj-24" : [ "dryWet", "dryWet", 0 ],
			"obj-35::obj-39" : [ "attack[3]", "attack", 0 ],
			"obj-22::obj-24" : [ "treble", "treble", 0 ],
			"obj-17::obj-24" : [ "drive", "drive", 0 ],
			"obj-4::obj-24" : [ "attack", "attack", 0 ],
			"obj-1::obj-20" : [ "modCoef", "modCoef", 0 ],
			"obj-17::obj-9" : [ "level", "level", 0 ],
			"parameterbanks" : 			{

			}

		}
,
		"dependency_cache" : [ 			{
				"name" : "stkBass2.maxpat",
				"bootpath" : "~/ownCloud/macShare/panoplie/synthPoly/faustSTK",
				"patcherrelativepath" : "../synthPoly/faustSTK",
				"type" : "JSON",
				"implicit" : 1
			}
, 			{
				"name" : "selInput.maxpat",
				"bootpath" : "~/ownCloud/macShare/panoplie/tools",
				"patcherrelativepath" : "../tools",
				"type" : "JSON",
				"implicit" : 1
			}
, 			{
				"name" : "midiNoteFormat.maxpat",
				"bootpath" : "~/ownCloud/macShare/panoplie/tools/under",
				"patcherrelativepath" : "../tools/under",
				"type" : "JSON",
				"implicit" : 1
			}
, 			{
				"name" : "cabinetAmpegManatee.maxpat",
				"bootpath" : "~/ownCloud/macShare/panoplie/audioFX/ampli",
				"patcherrelativepath" : "../audioFX/ampli",
				"type" : "JSON",
				"implicit" : 1
			}
, 			{
				"name" : "distoTubeScreamer.maxpat",
				"bootpath" : "~/ownCloud/macShare/panoplie/audioFX",
				"patcherrelativepath" : "../audioFX",
				"type" : "JSON",
				"implicit" : 1
			}
, 			{
				"name" : "toneStackAmpeg.maxpat",
				"bootpath" : "~/ownCloud/macShare/panoplie/audioFX/ampli",
				"patcherrelativepath" : "../audioFX/ampli",
				"type" : "JSON",
				"implicit" : 1
			}
, 			{
				"name" : "autowah.maxpat",
				"bootpath" : "~/ownCloud/macShare/panoplie/audioFX",
				"patcherrelativepath" : "../audioFX",
				"type" : "JSON",
				"implicit" : 1
			}
, 			{
				"name" : "compressor.maxpat",
				"bootpath" : "~/ownCloud/macShare/panoplie/audioFX",
				"patcherrelativepath" : "../audioFX",
				"type" : "JSON",
				"implicit" : 1
			}
, 			{
				"name" : "presetManager.maxpat",
				"bootpath" : "~/ownCloud/macShare/panoplie/tools",
				"patcherrelativepath" : "../tools",
				"type" : "JSON",
				"implicit" : 1
			}
, 			{
				"name" : "bass.json",
				"bootpath" : "~/ownCloud/macShare/panoplie/examples",
				"patcherrelativepath" : ".",
				"type" : "JSON",
				"implicit" : 1
			}
, 			{
				"name" : "tube6V6.maxpat",
				"bootpath" : "~/ownCloud/macShare/panoplie/audioFX/ampli",
				"patcherrelativepath" : "../audioFX/ampli",
				"type" : "JSON",
				"implicit" : 1
			}
, 			{
				"name" : "panpot.maxpat",
				"bootpath" : "~/ownCloud/macShare/panoplie/tools",
				"patcherrelativepath" : "../tools",
				"type" : "JSON",
				"implicit" : 1
			}
, 			{
				"name" : "dryWet.maxpat",
				"bootpath" : "~/ownCloud/macShare/panoplie/tools",
				"patcherrelativepath" : "../tools",
				"type" : "JSON",
				"implicit" : 1
			}
, 			{
				"name" : "noiseGate.maxpat",
				"bootpath" : "~/ownCloud/macShare/panoplie/tools",
				"patcherrelativepath" : "../tools",
				"type" : "JSON",
				"implicit" : 1
			}
, 			{
				"name" : "stkBass2~.mxo",
				"type" : "iLaX"
			}
, 			{
				"name" : "cabinetAmpegManateeTreble~.mxo",
				"type" : "iLaX"
			}
, 			{
				"name" : "cabinetAmpegManateeBass~.mxo",
				"type" : "iLaX"
			}
, 			{
				"name" : "distoTubeScreamer~.mxo",
				"type" : "iLaX"
			}
, 			{
				"name" : "toneStackAmpeg~.mxo",
				"type" : "iLaX"
			}
, 			{
				"name" : "autowah~.mxo",
				"type" : "iLaX"
			}
, 			{
				"name" : "compressor~.mxo",
				"type" : "iLaX"
			}
, 			{
				"name" : "tube6V6~.mxo",
				"type" : "iLaX"
			}
, 			{
				"name" : "panpot~.mxo",
				"type" : "iLaX"
			}
, 			{
				"name" : "dryWet~.mxo",
				"type" : "iLaX"
			}
 ],
		"autosave" : 0,
		"styles" : [ 			{
				"name" : "newobjYellow-1",
				"default" : 				{
					"fontsize" : [ 12.059008 ],
					"accentcolor" : [ 0.82517, 0.78181, 0.059545, 1.0 ]
				}
,
				"parentstyle" : "",
				"multi" : 0
			}
, 			{
				"name" : "numberGold-1",
				"default" : 				{
					"accentcolor" : [ 0.764706, 0.592157, 0.101961, 1.0 ]
				}
,
				"parentstyle" : "",
				"multi" : 0
			}
 ]
	}

}
